<?xml version="1.0" encoding="iso-8859-1"?>
<!-- Uploaded to: SVG Repo, www.svgrepo.com, Generator: SVG Repo Mixer Tools -->
<svg height="800px" width="800px" version="1.1" id="Layer_1" xmlns="http://www.w3.org/2000/svg" xmlns:xlink="http://www.w3.org/1999/xlink" 
	 viewBox="0 0 512 512" xml:space="preserve">
<path style="fill:#747C81;" d="M415.614,512H96.386c-38.408,0-68.613-32.993-65.235-71.247l22.552-255.527
	C62.95,80.479,150.672,0,256,0c105.162,0,193.036,80.314,202.296,185.229l22.552,255.526C484.227,479.014,454.017,512,415.614,512z"
	/>
<path style="fill:#676E72;" d="M480.849,440.753l-22.552-255.526C449.036,80.314,361.162,0,256,0v512h159.614
	C454.017,512,484.227,479.014,480.849,440.753z"/>
<path style="fill:#E4EBF0;" d="M393.087,512l-11.82-306.137c-2.806-64.629-82.911-92.26-125.267-44.161
	c-42.336-48.076-122.46-20.512-125.267,44.161L118.913,512H393.087z"/>
<path style="fill:#BBC8D1;" d="M381.267,205.863c-2.805-64.629-82.911-92.26-125.267-44.161V512h137.087L381.267,205.863z"/>
<path style="fill:#FFC843;" d="M241.042,425.735l-42.795-65.565c-4.618-7.075-3.647-16.419,2.328-22.392l42.795-42.795
	c6.974-6.974,18.283-6.974,25.258,0l42.795,42.795c5.975,5.974,6.945,15.316,2.328,22.392l-42.795,65.565
	C263.918,436.516,248.089,436.525,241.042,425.735z"/>
<path style="fill:#F3B73F;" d="M311.425,337.778l-42.795-42.795c-3.488-3.488-8.059-5.231-12.629-5.231v144.072
	c5.719,0,11.437-2.698,14.958-8.09l42.795-65.565C318.37,353.094,317.398,343.751,311.425,337.778z"/>
<circle style="fill:#4A5052;" cx="210.765" cy="250.404" r="23.627"/>
<circle style="fill:#404647;" cx="301.235" cy="250.404" r="23.627"/>
</svg>