<?xml version="1.0" encoding="iso-8859-1"?>

<!DOCTYPE svg PUBLIC "-//W3C//DTD SVG 1.1//EN" "http://www.w3.org/Graphics/SVG/1.1/DTD/svg11.dtd">
<!-- Uploaded to: SVG Repo, www.svgrepo.com, Generator: SVG Repo Mixer Tools -->
<svg height="800px" width="800px" version="1.1" id="_x35_" xmlns="http://www.w3.org/2000/svg" xmlns:xlink="http://www.w3.org/1999/xlink" 
	 viewBox="0 0 512 512"  xml:space="preserve">
<g>
	<g>
		<path style="fill:#EEE5D0;" d="M265.108,407.885c-2.422,16.531-1.141,41.39,24.08,62.194
			c26.579,21.806,62.556,17.457,70.106,15.321l-8.621,24.581c-7.549,2.136-47.444,6.339-76.875-11.404
			c-48.801-29.563-56.496-83.499-56.496-83.499s-7.764,53.936-56.566,83.499c-29.354,17.742-69.253,13.54-76.805,11.404L75.31,485.4
			c7.479,2.136,43.527,6.485,70.106-15.321c25.221-20.803,26.502-45.663,24.08-62.194c0,0-37.188,47.59-94.043,52.509
			C33.129,464.096,5.559,438.304,0,432.822l7.41-25.723c5.487,5.49,34.2,29.925,68.042,23.872
			c33.268-5.914,47.518-30.927,53.292-47.451c-12.113,11.751-35.839,25.145-73.528,9.477
			c-58.848-24.581-51.511-78.517-51.511-95.689l18.667-8.544c0,35.053,17.6,67.322,52.437,63.475
			c9.619-1.064,23.872-7.41,31.066-22.654c2.992-5.983,4.773-13.394,4.773-22.445h213.307c0,9.052,1.781,16.462,4.773,22.445
			c7.202,15.245,21.451,21.59,31.066,22.654c34.767,3.847,52.44-28.422,52.44-63.475l18.667,8.544
			c0,17.172,7.333,71.107-51.515,95.689c-37.759,15.668-61.485,2.275-73.598-9.477c5.844,16.525,20.094,41.537,53.366,47.451
			c33.842,6.053,62.556-18.382,68.039-23.872l7.41,25.723c-5.559,5.482-33.125,31.274-75.448,27.573
			C302.296,455.475,265.108,407.885,265.108,407.885z"/>
		<path style="fill:#D9D5CC;" d="M328.728,329.583H105.875c2.992-5.983,4.773-13.394,4.773-22.445h213.307
			C323.955,316.19,325.736,323.6,328.728,329.583z"/>
		<path style="fill:#EEE5D0;" d="M101.255,312.662v-66.445c0-9.275-7.518-16.796-16.788-16.796H28.077
			c-6.728,0-12.799-4.014-15.446-10.193c-2.637-6.186-1.336-13.345,3.323-18.201L203.623,5.169C206.795,1.865,211.165,0,215.75,0
			c4.571,0,8.948,1.865,12.12,5.169l187.668,195.858c4.648,4.856,5.963,12.016,3.326,18.201
			c-2.651,6.178-8.718,10.193-15.446,10.193H347.02c-9.267,0-16.789,7.521-16.789,16.796v66.445H101.255z"/>
		<path style="fill:#636262;" d="M149.562,336.583c0,9.491-7.688,17.186-17.178,17.186c-9.484,0-17.172-7.695-17.172-17.186
			c0-9.483,7.688-17.178,17.172-17.178C141.873,319.404,149.562,327.1,149.562,336.583z"/>
		<path style="fill:#636262;" d="M315.488,336.583c0,9.491-7.689,17.186-17.179,17.186c-9.483,0-17.171-7.695-17.171-17.186
			c0-9.483,7.688-17.178,17.171-17.178C307.799,319.404,315.488,327.1,315.488,336.583z"/>
		<g style="opacity:0.06;">
			<path style="fill:#140808;" d="M359.154,460.395c42.323,3.701,69.889-22.091,75.448-27.573l-7.41-25.723
				c-5.483,5.49-34.197,29.925-68.039,23.872c-33.272-5.914-47.521-30.927-53.366-47.451c12.113,11.751,35.839,25.145,73.598,9.477
				c58.848-24.581,51.515-78.517,51.515-95.689l-18.667-8.544c0,35.053-17.673,67.322-52.44,63.475
				c-9.615-1.064-23.865-7.41-31.066-22.654c-2.351-4.71-3.917-10.339-4.494-16.921h5.997v-66.445
				c0-9.275,7.522-16.796,16.789-16.796h56.399c6.728,0,12.795-4.014,15.446-10.193c2.637-6.186,1.322-13.345-3.326-18.201
				L227.87,5.169C224.697,1.865,220.321,0,215.75,0v422.287c1.127-4.453,1.552-7.208,1.552-7.208s7.695,53.936,56.496,83.499
				c29.431,17.742,69.326,13.54,76.875,11.404l8.621-24.581c-7.549,2.136-43.527,6.485-70.106-15.321
				c-25.221-20.803-26.501-45.663-24.08-62.194C265.108,407.885,302.296,455.475,359.154,460.395z"/>
		</g>
	</g>
	<path style="fill:#D9D5CC;" d="M354.617,221.197l-30.55-30.558v53.247c0,0,3.624-22.39,11.493-22.39
		C343.429,221.496,354.617,221.197,354.617,221.197z"/>
</g>
</svg>